Coordinates
version=1
nRows=4
nColumns=107
inDegrees=yes

Units are S.I. units (second, meters, Newtons, ...)
If the header above contains a line with 'inDegrees', this indicates whether rotational values are in degrees (yes) or radians (no).

endheader
time	sternoclavicular_r2	sternoclavicular_r3	unrotscap_r3	unrotscap_r2	acromioclavicular_r2	acromioclavicular_r3	acromioclavicular_r1	unrothum_r1	unrothum_r3	unrothum_r2	elv_angle	shoulder_elv	shoulder1_r2	shoulder_rot	elbow_flexion	pro_sup	deviation	flexion	proximal_distal_r1	proximal_distal_r3	cmc_flexion	cmc_abduction	mp_flexion	ip_flexion	mcp2_flexion	mcp2_abduction	pm2_flexion	md2_flexion	mcp3_flexion	mcp3_abduction	pm3_flexion	md3_flexion	mcp4_flexion	mcp4_abduction	pm4_flexion	md4_flexion	mcp5_flexion	mcp5_abduction	pm5_flexion	md5_flexion	bicpt_tx	bicpt_ty	bicpt_tz	bicpt2_tx	bicpt2_ty	bicpt2_tz	ptpt_tx	ptpt_ty	ptpt_tz	FCUpt_tx	FCUpt_ty	FCUpt_tz	EDCpt_tx	EDCpt_ty	EDCpt_tz	APLpt_tx	APLpt_ty	APLpt_tz	FPLpt_tx	FPLpt_ty	FPLpt_tz	FPLpt2_tx	FPLpt2_ty	FPLpt2_tz	PEC1pt2_tx	PEC1pt2_ty	PEC1pt2_tz	PEC1pt3_tx	PEC1pt3_ty	PEC1pt3_tz	PEC2pt2_tx	PEC2pt2_ty	PEC2pt2_tz	PEC2pt3_tx	PEC2pt3_ty	PEC2pt3_tz	PEC3pt2_tx	PEC3pt2_ty	PEC3pt2_tz	PEC3pt3_tx	PEC3pt3_ty	PEC3pt3_tz	DELT2pt2a_tx	DELT2pt2a_ty	DELT2pt2a_tz	DELT2pt2_tx	DELT2pt2_ty	DELT2pt2_tz	LAT1pt2_tx	LAT1pt2_ty	LAT1pt2_tz	LAT1pt3_tx	LAT1pt3_ty	LAT1pt3_tz	LAT2pt2_tx	LAT2pt2_ty	LAT2pt2_tz	LAT2pt3_tx	LAT2pt3_ty	LAT2pt3_tz	LAT3pt2_tx	LAT3pt2_ty	LAT3pt2_tz	LAT3pt3_tx	LAT3pt3_ty	LAT3pt3_tz
      0.76666667	     -0.32413257	      0.13728726	     -0.13728726	      0.32413257	     -0.06563025	      0.53040060	      0.23841142	     -0.23841142	     -0.53040060	      0.06563025	     98.96749783	     76.74126606	     -1.72730869	    -22.16330761	     28.04752513	     39.63386981	      0.17877142	     -1.03947443	      0.21645914	     -0.51973722	      0.27538919	     -1.03222350	    -33.26057688	    -35.39867460	     83.86574053	     12.81980766	     84.89905836	     82.29065963	     82.27112748	      5.13148845	     84.58381968	     58.54305004	     80.78110982	    -11.25638815	     92.95211193	     45.39895675	     88.70286019	    -13.57004266	     85.92348901	      5.69427863	      0.00082773	     -0.03081468	     -0.00481780	      0.01657357	     -0.01781925	     -0.00750902	      0.00462150	     -0.06679361	     -0.00324272	      0.00774340	     -0.18350266	     -0.00038377	     -0.00475605	      0.00136537	      0.00014901	      0.00015866	      0.00006346	      0.00031731	      0.00020308	      0.00060924	      0.00034270	      0.00000774	     -0.00000684	     -0.00000821	      0.00251541	      0.00882525	      0.00613931	     -0.00822838	      0.01986748	     -0.01884426	      0.00251541	      0.00882525	      0.00613931	      0.00055424	      0.01841792	     -0.00967793	      0.00396962	      0.00490761	      0.01602039	      0.00000000	      0.00787687	      0.00000000	     -0.00720516	     -0.03329721	     -0.00649538	      0.01499332	     -0.00049929	     -0.00408549	     -0.00089532	      0.01500719	     -0.00613931	      0.00247278	      0.02165811	     -0.01790631	     -0.00601140	      0.01300339	     -0.00549980	     -0.01253442	      0.02745634	     -0.03073917	     -0.02353401	      0.01453822	     -0.00737569	     -0.01560407	      0.03171975	     -0.03841330
      0.80000000	     -0.32440351	      0.13740202	     -0.13740202	      0.32440351	     -0.06568511	      0.53084397	      0.23861071	     -0.23861071	     -0.53084397	      0.06568511	     98.87820690	     76.80541412	     -1.72575027	    -21.82736762	     28.09740647	     39.56991816	      0.17556405	     -1.04043373	      0.21303685	     -0.52021686	      0.80021250	      0.66344248	    -32.09054604	    -32.16363428	     80.14910860	     12.82053128	     84.50023926	     80.78500328	     79.68432450	      5.21945753	     84.19026032	     54.82494291	     78.48594320	    -11.09644996	     91.72365604	     43.87159575	     87.14178580	    -13.54245434	     83.51525568	      5.69781884	      0.00082937	     -0.03082039	     -0.00481872	      0.01657343	     -0.01783280	     -0.00751584	      0.00462623	     -0.06679056	     -0.00323757	      0.00773696	     -0.18350399	     -0.00038331	     -0.00474838	      0.00136277	      0.00014947	      0.00015797	      0.00006319	      0.00031593	      0.00020220	      0.00060659	      0.00034121	      0.00001989	     -0.00001965	     -0.00002358	      0.00251751	      0.00883263	      0.00614444	     -0.00823525	      0.01988409	     -0.01886001	      0.00251751	      0.00883263	      0.00614444	      0.00055471	      0.01843331	     -0.00968602	      0.00397203	      0.00491171	      0.01602624	      0.00000000	      0.00789013	      0.00000000	     -0.00721118	     -0.03332504	     -0.00650639	      0.01480859	     -0.00048871	     -0.00395835	     -0.00089606	      0.01501974	     -0.00614444	      0.00247484	      0.02167621	     -0.01792128	     -0.00601643	      0.01301426	     -0.00550439	     -0.01254489	      0.02747929	     -0.03076486	     -0.02355368	      0.01455037	     -0.00738186	     -0.01561711	      0.03174626	     -0.03844541
      0.83333333	     -0.32521385	      0.13774524	     -0.13774524	      0.32521385	     -0.06584919	      0.53216998	      0.23920674	     -0.23920674	     -0.53216998	      0.06584919	     98.69608033	     76.99726858	     -1.72257156	    -20.84946274	     28.07398404	     38.92261614	      0.17439544	     -1.03409091	      0.21178551	     -0.51704546	      1.99507918	      1.57848662	    -30.10980603	    -30.22902365	     74.75082398	     12.80509894	     83.54402462	     80.19975609	     75.82649668	      5.37351381	     82.71466550	     52.80156033	     75.02726011	    -10.81375437	     89.57118202	     42.78190272	     84.18107066	    -13.52136860	     80.95374615	      5.64872695	      0.00082860	     -0.03081771	     -0.00481829	      0.01657107	     -0.01782644	     -0.00758423	      0.00467406	     -0.06675963	     -0.00318543	      0.00767195	     -0.18351731	     -0.00037834	     -0.00467070	      0.00133659	      0.00015384	      0.00016250	      0.00006500	      0.00032499	      0.00020800	      0.00062399	      0.00035099	      0.00003670	     -0.00004767	     -0.00005720	      0.00252380	      0.00885469	      0.00615979	     -0.00825583	      0.01993375	     -0.01890712	      0.00252380	      0.00885469	      0.00615979	      0.00055609	      0.01847936	     -0.00971022	      0.00397924	      0.00492398	      0.01604366	      0.00000000	      0.00792989	      0.00000000	     -0.00722919	     -0.03340829	     -0.00653938	      0.01426164	     -0.00045817	     -0.00359870	     -0.00089830	      0.01505726	     -0.00615979	      0.00248103	      0.02173036	     -0.01796604	     -0.00603146	      0.01304677	     -0.00551814	     -0.01257623	      0.02754793	     -0.03084171	     -0.02361252	      0.01458672	     -0.00740030	     -0.01565612	      0.03182556	     -0.03854144
      0.86666667	     -0.32548423	      0.13785976	     -0.13785976	      0.32548423	     -0.06590393	      0.53261242	      0.23940562	     -0.23940562	     -0.53261242	      0.06590393	     99.14760557	     77.06128378	     -1.73045216	    -20.67982612	     27.12476337	     39.13861367	      0.18667098	     -1.04797630	      0.22481799	     -0.52398815	      5.52807487	      2.07115320	    -28.71539432	    -29.66719446	     70.92745763	     12.87241528	     82.18718327	     79.88450592	     71.95036784	      5.52907651	     80.85632662	     52.03432117	     71.67359686	    -10.63169066	     87.49056262	     42.19948008	     81.09249763	    -13.52615959	     79.28323689	      5.42742932	      0.00079720	     -0.03070891	     -0.00480076	      0.01657195	     -0.01756858	     -0.00756147	      0.00465810	     -0.06676995	     -0.00320283	      0.00769363	     -0.18351288	     -0.00038003	     -0.00469662	      0.00134532	      0.00015240	      0.00015249	      0.00006100	      0.00030498	      0.00019519	      0.00058557	      0.00032938	      0.00003888	     -0.00012123	     -0.00014548	      0.00252590	      0.00886206	      0.00616491	     -0.00826269	      0.01995033	     -0.01892284	      0.00252590	      0.00886206	      0.00616491	      0.00055655	      0.01849472	     -0.00971829	      0.00398165	      0.00492808	      0.01604945	      0.00000000	      0.00794317	      0.00000000	     -0.00723520	     -0.03343606	     -0.00655041	      0.01416546	     -0.00045291	     -0.00353781	     -0.00089905	      0.01506977	     -0.00616491	      0.00248309	      0.02174843	     -0.01798098	     -0.00603647	      0.01305762	     -0.00552273	     -0.01258669	      0.02757084	     -0.03086735	     -0.02363215	      0.01459884	     -0.00740645	     -0.01566914	      0.03185202	     -0.03857349
